<mxfile host="app.diagrams.net" modified="2023-05-15T03:22:27.924Z" agent="Mozilla/5.0 (Windows NT 10.0; Win64; x64) AppleWebKit/537.36 (KHTML, like Gecko) Chrome/109.0.0.0 Safari/537.36" etag="1RpIpCgP6YBXB93x41xo" version="21.2.9" type="github">
  <diagram name="Page-1" id="2YBvvXClWsGukQMizWep">
    <mxGraphModel dx="1120" dy="452" grid="1" gridSize="10" guides="1" tooltips="1" connect="1" arrows="1" fold="1" page="1" pageScale="1" pageWidth="850" pageHeight="1100" math="0" shadow="0">
      <root>
        <mxCell id="0" />
        <mxCell id="1" parent="0" />
        <mxCell id="se3cPvvkGwRjd8mJUUMq-9" value="&amp;nbsp;UploadCache接口" style="shape=umlLifeline;perimeter=lifelinePerimeter;whiteSpace=wrap;html=1;container=1;dropTarget=0;collapsible=0;recursiveResize=0;outlineConnect=0;portConstraint=eastwest;newEdgeStyle={&quot;edgeStyle&quot;:&quot;elbowEdgeStyle&quot;,&quot;elbow&quot;:&quot;vertical&quot;,&quot;curved&quot;:0,&quot;rounded&quot;:0};" vertex="1" parent="1">
          <mxGeometry x="140" y="30" width="100" height="410" as="geometry" />
        </mxCell>
        <mxCell id="se3cPvvkGwRjd8mJUUMq-10" value="" style="html=1;points=[];perimeter=orthogonalPerimeter;outlineConnect=0;targetShapes=umlLifeline;portConstraint=eastwest;newEdgeStyle={&quot;edgeStyle&quot;:&quot;elbowEdgeStyle&quot;,&quot;elbow&quot;:&quot;vertical&quot;,&quot;curved&quot;:0,&quot;rounded&quot;:0};" vertex="1" parent="se3cPvvkGwRjd8mJUUMq-9">
          <mxGeometry x="45" y="100" width="10" height="290" as="geometry" />
        </mxCell>
        <mxCell id="se3cPvvkGwRjd8mJUUMq-11" value="上传驱动视频video&lt;br style=&quot;border-color: var(--border-color);&quot;&gt;输入name" style="html=1;verticalAlign=bottom;startArrow=oval;endArrow=block;startSize=8;edgeStyle=elbowEdgeStyle;elbow=vertical;curved=0;rounded=0;" edge="1" target="se3cPvvkGwRjd8mJUUMq-10" parent="se3cPvvkGwRjd8mJUUMq-9">
          <mxGeometry relative="1" as="geometry">
            <mxPoint x="-90" y="100" as="sourcePoint" />
          </mxGeometry>
        </mxCell>
        <mxCell id="se3cPvvkGwRjd8mJUUMq-12" value="FiileFacade&lt;br&gt;S3存储对象" style="shape=umlLifeline;perimeter=lifelinePerimeter;whiteSpace=wrap;html=1;container=1;dropTarget=0;collapsible=0;recursiveResize=0;outlineConnect=0;portConstraint=eastwest;newEdgeStyle={&quot;edgeStyle&quot;:&quot;elbowEdgeStyle&quot;,&quot;elbow&quot;:&quot;vertical&quot;,&quot;curved&quot;:0,&quot;rounded&quot;:0};" vertex="1" parent="1">
          <mxGeometry x="310" y="30" width="100" height="1150" as="geometry" />
        </mxCell>
        <mxCell id="se3cPvvkGwRjd8mJUUMq-15" value="" style="html=1;points=[];perimeter=orthogonalPerimeter;outlineConnect=0;targetShapes=umlLifeline;portConstraint=eastwest;newEdgeStyle={&quot;edgeStyle&quot;:&quot;elbowEdgeStyle&quot;,&quot;elbow&quot;:&quot;vertical&quot;,&quot;curved&quot;:0,&quot;rounded&quot;:0};" vertex="1" parent="se3cPvvkGwRjd8mJUUMq-12">
          <mxGeometry x="45" y="120" width="10" height="80" as="geometry" />
        </mxCell>
        <mxCell id="se3cPvvkGwRjd8mJUUMq-56" value="" style="html=1;points=[];perimeter=orthogonalPerimeter;outlineConnect=0;targetShapes=umlLifeline;portConstraint=eastwest;newEdgeStyle={&quot;edgeStyle&quot;:&quot;elbowEdgeStyle&quot;,&quot;elbow&quot;:&quot;vertical&quot;,&quot;curved&quot;:0,&quot;rounded&quot;:0};" vertex="1" parent="se3cPvvkGwRjd8mJUUMq-12">
          <mxGeometry x="45" y="960" width="10" height="80" as="geometry" />
        </mxCell>
        <mxCell id="se3cPvvkGwRjd8mJUUMq-13" value="CacheDao&lt;br&gt;缓存预热持久化对象" style="shape=umlLifeline;perimeter=lifelinePerimeter;whiteSpace=wrap;html=1;container=1;dropTarget=0;collapsible=0;recursiveResize=0;outlineConnect=0;portConstraint=eastwest;newEdgeStyle={&quot;edgeStyle&quot;:&quot;elbowEdgeStyle&quot;,&quot;elbow&quot;:&quot;vertical&quot;,&quot;curved&quot;:0,&quot;rounded&quot;:0};" vertex="1" parent="1">
          <mxGeometry x="480" y="30" width="100" height="1740" as="geometry" />
        </mxCell>
        <mxCell id="se3cPvvkGwRjd8mJUUMq-17" value="" style="html=1;points=[];perimeter=orthogonalPerimeter;outlineConnect=0;targetShapes=umlLifeline;portConstraint=eastwest;newEdgeStyle={&quot;edgeStyle&quot;:&quot;elbowEdgeStyle&quot;,&quot;elbow&quot;:&quot;vertical&quot;,&quot;curved&quot;:0,&quot;rounded&quot;:0};" vertex="1" parent="se3cPvvkGwRjd8mJUUMq-13">
          <mxGeometry x="45" y="220" width="10" height="80" as="geometry" />
        </mxCell>
        <mxCell id="se3cPvvkGwRjd8mJUUMq-37" value="" style="html=1;points=[];perimeter=orthogonalPerimeter;outlineConnect=0;targetShapes=umlLifeline;portConstraint=eastwest;newEdgeStyle={&quot;edgeStyle&quot;:&quot;elbowEdgeStyle&quot;,&quot;elbow&quot;:&quot;vertical&quot;,&quot;curved&quot;:0,&quot;rounded&quot;:0};" vertex="1" parent="se3cPvvkGwRjd8mJUUMq-13">
          <mxGeometry x="45" y="590" width="10" height="80" as="geometry" />
        </mxCell>
        <mxCell id="se3cPvvkGwRjd8mJUUMq-62" value="" style="html=1;points=[];perimeter=orthogonalPerimeter;outlineConnect=0;targetShapes=umlLifeline;portConstraint=eastwest;newEdgeStyle={&quot;edgeStyle&quot;:&quot;elbowEdgeStyle&quot;,&quot;elbow&quot;:&quot;vertical&quot;,&quot;curved&quot;:0,&quot;rounded&quot;:0};" vertex="1" parent="se3cPvvkGwRjd8mJUUMq-13">
          <mxGeometry x="45" y="1070" width="10" height="80" as="geometry" />
        </mxCell>
        <mxCell id="se3cPvvkGwRjd8mJUUMq-70" value="" style="html=1;points=[];perimeter=orthogonalPerimeter;outlineConnect=0;targetShapes=umlLifeline;portConstraint=eastwest;newEdgeStyle={&quot;edgeStyle&quot;:&quot;elbowEdgeStyle&quot;,&quot;elbow&quot;:&quot;vertical&quot;,&quot;curved&quot;:0,&quot;rounded&quot;:0};" vertex="1" parent="se3cPvvkGwRjd8mJUUMq-13">
          <mxGeometry x="45" y="1280" width="10" height="80" as="geometry" />
        </mxCell>
        <mxCell id="se3cPvvkGwRjd8mJUUMq-82" value="" style="html=1;points=[];perimeter=orthogonalPerimeter;outlineConnect=0;targetShapes=umlLifeline;portConstraint=eastwest;newEdgeStyle={&quot;edgeStyle&quot;:&quot;elbowEdgeStyle&quot;,&quot;elbow&quot;:&quot;vertical&quot;,&quot;curved&quot;:0,&quot;rounded&quot;:0};" vertex="1" parent="se3cPvvkGwRjd8mJUUMq-13">
          <mxGeometry x="45" y="1540" width="10" height="80" as="geometry" />
        </mxCell>
        <mxCell id="se3cPvvkGwRjd8mJUUMq-14" value="CacheMqProducer缓存预热mq生产者" style="shape=umlLifeline;perimeter=lifelinePerimeter;whiteSpace=wrap;html=1;container=1;dropTarget=0;collapsible=0;recursiveResize=0;outlineConnect=0;portConstraint=eastwest;newEdgeStyle={&quot;edgeStyle&quot;:&quot;elbowEdgeStyle&quot;,&quot;elbow&quot;:&quot;vertical&quot;,&quot;curved&quot;:0,&quot;rounded&quot;:0};" vertex="1" parent="1">
          <mxGeometry x="640" y="30" width="110" height="610" as="geometry" />
        </mxCell>
        <mxCell id="se3cPvvkGwRjd8mJUUMq-19" value="" style="html=1;points=[];perimeter=orthogonalPerimeter;outlineConnect=0;targetShapes=umlLifeline;portConstraint=eastwest;newEdgeStyle={&quot;edgeStyle&quot;:&quot;elbowEdgeStyle&quot;,&quot;elbow&quot;:&quot;vertical&quot;,&quot;curved&quot;:0,&quot;rounded&quot;:0};" vertex="1" parent="se3cPvvkGwRjd8mJUUMq-14">
          <mxGeometry x="50" y="300" width="10" height="80" as="geometry" />
        </mxCell>
        <mxCell id="se3cPvvkGwRjd8mJUUMq-16" value="上传驱动视频文件&lt;br&gt;upload video" style="html=1;verticalAlign=bottom;startArrow=oval;endArrow=block;startSize=8;edgeStyle=elbowEdgeStyle;elbow=vertical;curved=0;rounded=0;" edge="1" target="se3cPvvkGwRjd8mJUUMq-15" parent="1" source="se3cPvvkGwRjd8mJUUMq-9">
          <mxGeometry x="0.003" relative="1" as="geometry">
            <mxPoint x="295" y="150" as="sourcePoint" />
            <mxPoint as="offset" />
          </mxGeometry>
        </mxCell>
        <mxCell id="se3cPvvkGwRjd8mJUUMq-18" value="合成任务入库&lt;br&gt;insert&amp;nbsp; cacheEntity" style="html=1;verticalAlign=bottom;startArrow=oval;endArrow=block;startSize=8;edgeStyle=elbowEdgeStyle;elbow=vertical;curved=0;rounded=0;" edge="1" target="se3cPvvkGwRjd8mJUUMq-17" parent="1" source="se3cPvvkGwRjd8mJUUMq-10">
          <mxGeometry relative="1" as="geometry">
            <mxPoint x="465" y="250" as="sourcePoint" />
            <mxPoint as="offset" />
          </mxGeometry>
        </mxCell>
        <mxCell id="se3cPvvkGwRjd8mJUUMq-20" value="合成任务发布到队列" style="html=1;verticalAlign=bottom;startArrow=oval;endArrow=block;startSize=8;edgeStyle=elbowEdgeStyle;elbow=vertical;curved=0;rounded=0;" edge="1" target="se3cPvvkGwRjd8mJUUMq-19" parent="1" source="se3cPvvkGwRjd8mJUUMq-10">
          <mxGeometry relative="1" as="geometry">
            <mxPoint x="635" y="360" as="sourcePoint" />
          </mxGeometry>
        </mxCell>
        <mxCell id="se3cPvvkGwRjd8mJUUMq-21" value="CacheMqConsumer&lt;br&gt;缓存预热mq消费者" style="shape=umlLifeline;perimeter=lifelinePerimeter;whiteSpace=wrap;html=1;container=1;dropTarget=0;collapsible=0;recursiveResize=0;outlineConnect=0;portConstraint=eastwest;newEdgeStyle={&quot;edgeStyle&quot;:&quot;elbowEdgeStyle&quot;,&quot;elbow&quot;:&quot;vertical&quot;,&quot;curved&quot;:0,&quot;rounded&quot;:0};" vertex="1" parent="1">
          <mxGeometry x="130" y="460" width="120" height="390" as="geometry" />
        </mxCell>
        <mxCell id="se3cPvvkGwRjd8mJUUMq-34" value="" style="html=1;points=[];perimeter=orthogonalPerimeter;outlineConnect=0;targetShapes=umlLifeline;portConstraint=eastwest;newEdgeStyle={&quot;edgeStyle&quot;:&quot;elbowEdgeStyle&quot;,&quot;elbow&quot;:&quot;vertical&quot;,&quot;curved&quot;:0,&quot;rounded&quot;:0};" vertex="1" parent="se3cPvvkGwRjd8mJUUMq-21">
          <mxGeometry x="55" y="80" width="10" height="270" as="geometry" />
        </mxCell>
        <mxCell id="se3cPvvkGwRjd8mJUUMq-24" value="MQ" style="shape=umlLifeline;perimeter=lifelinePerimeter;whiteSpace=wrap;html=1;container=1;dropTarget=0;collapsible=0;recursiveResize=0;outlineConnect=0;portConstraint=eastwest;newEdgeStyle={&quot;edgeStyle&quot;:&quot;elbowEdgeStyle&quot;,&quot;elbow&quot;:&quot;vertical&quot;,&quot;curved&quot;:0,&quot;rounded&quot;:0};" vertex="1" parent="1">
          <mxGeometry x="790" y="30" width="100" height="980" as="geometry" />
        </mxCell>
        <mxCell id="se3cPvvkGwRjd8mJUUMq-26" value="" style="html=1;points=[];perimeter=orthogonalPerimeter;outlineConnect=0;targetShapes=umlLifeline;portConstraint=eastwest;newEdgeStyle={&quot;edgeStyle&quot;:&quot;elbowEdgeStyle&quot;,&quot;elbow&quot;:&quot;vertical&quot;,&quot;curved&quot;:0,&quot;rounded&quot;:0};" vertex="1" parent="se3cPvvkGwRjd8mJUUMq-24">
          <mxGeometry x="45" y="340" width="10" height="200" as="geometry" />
        </mxCell>
        <mxCell id="se3cPvvkGwRjd8mJUUMq-27" value="tcp&lt;br&gt;produce" style="html=1;verticalAlign=bottom;startArrow=oval;endArrow=block;startSize=8;edgeStyle=elbowEdgeStyle;elbow=vertical;curved=0;rounded=0;" edge="1" target="se3cPvvkGwRjd8mJUUMq-26" parent="1" source="se3cPvvkGwRjd8mJUUMq-19">
          <mxGeometry relative="1" as="geometry">
            <mxPoint x="775" y="380" as="sourcePoint" />
          </mxGeometry>
        </mxCell>
        <mxCell id="se3cPvvkGwRjd8mJUUMq-35" value="tcp consume&lt;br&gt;单活消费模式，消费预热任务" style="html=1;verticalAlign=bottom;endArrow=block;edgeStyle=elbowEdgeStyle;elbow=vertical;curved=0;rounded=0;" edge="1" target="se3cPvvkGwRjd8mJUUMq-34" parent="1" source="se3cPvvkGwRjd8mJUUMq-26">
          <mxGeometry relative="1" as="geometry">
            <mxPoint x="265" y="620" as="sourcePoint" />
          </mxGeometry>
        </mxCell>
        <mxCell id="se3cPvvkGwRjd8mJUUMq-38" value="更新记录状态为消费中&lt;br&gt;update cache set state = cunsome" style="html=1;verticalAlign=bottom;startArrow=oval;endArrow=block;startSize=8;edgeStyle=elbowEdgeStyle;elbow=vertical;curved=0;rounded=0;" edge="1" target="se3cPvvkGwRjd8mJUUMq-37" parent="1" source="se3cPvvkGwRjd8mJUUMq-34">
          <mxGeometry relative="1" as="geometry">
            <mxPoint x="465" y="620" as="sourcePoint" />
            <mxPoint as="offset" />
          </mxGeometry>
        </mxCell>
        <mxCell id="se3cPvvkGwRjd8mJUUMq-39" value="DriverVideoCacheAi&lt;br&gt;底层AI缓存合成服务" style="shape=umlLifeline;perimeter=lifelinePerimeter;whiteSpace=wrap;html=1;container=1;dropTarget=0;collapsible=0;recursiveResize=0;outlineConnect=0;portConstraint=eastwest;newEdgeStyle={&quot;edgeStyle&quot;:&quot;elbowEdgeStyle&quot;,&quot;elbow&quot;:&quot;vertical&quot;,&quot;curved&quot;:0,&quot;rounded&quot;:0};" vertex="1" parent="1">
          <mxGeometry x="900" y="460" width="130" height="360" as="geometry" />
        </mxCell>
        <mxCell id="se3cPvvkGwRjd8mJUUMq-40" value="" style="html=1;points=[];perimeter=orthogonalPerimeter;outlineConnect=0;targetShapes=umlLifeline;portConstraint=eastwest;newEdgeStyle={&quot;edgeStyle&quot;:&quot;elbowEdgeStyle&quot;,&quot;elbow&quot;:&quot;vertical&quot;,&quot;curved&quot;:0,&quot;rounded&quot;:0};" vertex="1" parent="se3cPvvkGwRjd8mJUUMq-39">
          <mxGeometry x="60" y="240" width="10" height="80" as="geometry" />
        </mxCell>
        <mxCell id="se3cPvvkGwRjd8mJUUMq-41" value="getVideoCacheFile()" style="html=1;verticalAlign=bottom;startArrow=oval;endArrow=block;startSize=8;edgeStyle=elbowEdgeStyle;elbow=vertical;curved=0;rounded=0;" edge="1" target="se3cPvvkGwRjd8mJUUMq-40" parent="1" source="se3cPvvkGwRjd8mJUUMq-34">
          <mxGeometry relative="1" as="geometry">
            <mxPoint x="900" y="700" as="sourcePoint" />
            <Array as="points">
              <mxPoint x="610" y="720" />
            </Array>
          </mxGeometry>
        </mxCell>
        <mxCell id="se3cPvvkGwRjd8mJUUMq-42" value="AI" style="shape=umlLifeline;perimeter=lifelinePerimeter;whiteSpace=wrap;html=1;container=1;dropTarget=0;collapsible=0;recursiveResize=0;outlineConnect=0;portConstraint=eastwest;newEdgeStyle={&quot;edgeStyle&quot;:&quot;elbowEdgeStyle&quot;,&quot;elbow&quot;:&quot;vertical&quot;,&quot;curved&quot;:0,&quot;rounded&quot;:0};" vertex="1" parent="1">
          <mxGeometry x="1080" y="460" width="100" height="700" as="geometry" />
        </mxCell>
        <mxCell id="se3cPvvkGwRjd8mJUUMq-43" value="" style="html=1;points=[];perimeter=orthogonalPerimeter;outlineConnect=0;targetShapes=umlLifeline;portConstraint=eastwest;newEdgeStyle={&quot;edgeStyle&quot;:&quot;elbowEdgeStyle&quot;,&quot;elbow&quot;:&quot;vertical&quot;,&quot;curved&quot;:0,&quot;rounded&quot;:0};" vertex="1" parent="se3cPvvkGwRjd8mJUUMq-42">
          <mxGeometry x="45" y="275" width="10" height="245" as="geometry" />
        </mxCell>
        <mxCell id="se3cPvvkGwRjd8mJUUMq-46" value="" style="html=1;points=[];perimeter=orthogonalPerimeter;outlineConnect=0;targetShapes=umlLifeline;portConstraint=eastwest;newEdgeStyle={&quot;edgeStyle&quot;:&quot;elbowEdgeStyle&quot;,&quot;elbow&quot;:&quot;vertical&quot;,&quot;curved&quot;:0,&quot;rounded&quot;:0};" vertex="1" parent="se3cPvvkGwRjd8mJUUMq-42">
          <mxGeometry x="50" y="360" width="10" height="40" as="geometry" />
        </mxCell>
        <mxCell id="se3cPvvkGwRjd8mJUUMq-47" value="合成" style="html=1;align=left;spacingLeft=2;endArrow=block;rounded=0;edgeStyle=orthogonalEdgeStyle;curved=0;rounded=0;" edge="1" target="se3cPvvkGwRjd8mJUUMq-46" parent="se3cPvvkGwRjd8mJUUMq-42">
          <mxGeometry relative="1" as="geometry">
            <mxPoint x="55" y="340" as="sourcePoint" />
            <Array as="points">
              <mxPoint x="85" y="370" />
            </Array>
          </mxGeometry>
        </mxCell>
        <mxCell id="se3cPvvkGwRjd8mJUUMq-44" value="get_video_cache_file接口" style="html=1;verticalAlign=bottom;startArrow=oval;endArrow=block;startSize=8;edgeStyle=elbowEdgeStyle;elbow=vertical;curved=0;rounded=0;" edge="1" target="se3cPvvkGwRjd8mJUUMq-43" parent="1" source="se3cPvvkGwRjd8mJUUMq-40">
          <mxGeometry relative="1" as="geometry">
            <mxPoint x="1065" y="735" as="sourcePoint" />
          </mxGeometry>
        </mxCell>
        <mxCell id="se3cPvvkGwRjd8mJUUMq-45" value="CacheFileCallback&lt;br&gt;缓存预热回调接口" style="shape=umlLifeline;perimeter=lifelinePerimeter;whiteSpace=wrap;html=1;container=1;dropTarget=0;collapsible=0;recursiveResize=0;outlineConnect=0;portConstraint=eastwest;newEdgeStyle={&quot;edgeStyle&quot;:&quot;elbowEdgeStyle&quot;,&quot;elbow&quot;:&quot;vertical&quot;,&quot;curved&quot;:0,&quot;rounded&quot;:0};" vertex="1" parent="1">
          <mxGeometry x="140" y="870" width="100" height="320" as="geometry" />
        </mxCell>
        <mxCell id="se3cPvvkGwRjd8mJUUMq-48" value="" style="html=1;points=[];perimeter=orthogonalPerimeter;outlineConnect=0;targetShapes=umlLifeline;portConstraint=eastwest;newEdgeStyle={&quot;edgeStyle&quot;:&quot;elbowEdgeStyle&quot;,&quot;elbow&quot;:&quot;vertical&quot;,&quot;curved&quot;:0,&quot;rounded&quot;:0};" vertex="1" parent="se3cPvvkGwRjd8mJUUMq-45">
          <mxGeometry x="45" y="80" width="10" height="190" as="geometry" />
        </mxCell>
        <mxCell id="se3cPvvkGwRjd8mJUUMq-49" value="callback&lt;br&gt;缓存接口回调" style="html=1;verticalAlign=bottom;endArrow=block;edgeStyle=elbowEdgeStyle;elbow=vertical;curved=0;rounded=0;" edge="1" target="se3cPvvkGwRjd8mJUUMq-48" parent="1" source="se3cPvvkGwRjd8mJUUMq-43">
          <mxGeometry relative="1" as="geometry">
            <mxPoint x="265" y="950" as="sourcePoint" />
            <mxPoint as="offset" />
          </mxGeometry>
        </mxCell>
        <mxCell id="se3cPvvkGwRjd8mJUUMq-57" value="上传缓存文件&lt;br style=&quot;border-color: var(--border-color);&quot;&gt;upload cache zip" style="html=1;verticalAlign=bottom;startArrow=oval;endArrow=block;startSize=8;edgeStyle=elbowEdgeStyle;elbow=vertical;curved=0;rounded=0;" edge="1" target="se3cPvvkGwRjd8mJUUMq-56" parent="1" source="se3cPvvkGwRjd8mJUUMq-48">
          <mxGeometry relative="1" as="geometry">
            <mxPoint x="295" y="990" as="sourcePoint" />
          </mxGeometry>
        </mxCell>
        <mxCell id="se3cPvvkGwRjd8mJUUMq-63" value="更新缓存任务状态&lt;br&gt;update cache set state = finish" style="html=1;verticalAlign=bottom;startArrow=oval;endArrow=block;startSize=8;edgeStyle=elbowEdgeStyle;elbow=vertical;curved=0;rounded=0;" edge="1" target="se3cPvvkGwRjd8mJUUMq-62" parent="1" source="se3cPvvkGwRjd8mJUUMq-48">
          <mxGeometry relative="1" as="geometry">
            <mxPoint x="465" y="1100" as="sourcePoint" />
          </mxGeometry>
        </mxCell>
        <mxCell id="se3cPvvkGwRjd8mJUUMq-64" value="AnimateController&lt;br&gt;模板配置类" style="shape=umlLifeline;perimeter=lifelinePerimeter;whiteSpace=wrap;html=1;container=1;dropTarget=0;collapsible=0;recursiveResize=0;outlineConnect=0;portConstraint=eastwest;newEdgeStyle={&quot;edgeStyle&quot;:&quot;elbowEdgeStyle&quot;,&quot;elbow&quot;:&quot;vertical&quot;,&quot;curved&quot;:0,&quot;rounded&quot;:0};" vertex="1" parent="1">
          <mxGeometry x="140" y="1220" width="100" height="610" as="geometry" />
        </mxCell>
        <mxCell id="se3cPvvkGwRjd8mJUUMq-68" value="" style="html=1;points=[];perimeter=orthogonalPerimeter;outlineConnect=0;targetShapes=umlLifeline;portConstraint=eastwest;newEdgeStyle={&quot;edgeStyle&quot;:&quot;elbowEdgeStyle&quot;,&quot;elbow&quot;:&quot;vertical&quot;,&quot;curved&quot;:0,&quot;rounded&quot;:0};" vertex="1" parent="se3cPvvkGwRjd8mJUUMq-64">
          <mxGeometry x="45" y="80" width="10" height="210" as="geometry" />
        </mxCell>
        <mxCell id="se3cPvvkGwRjd8mJUUMq-69" value="运营配置模板" style="html=1;verticalAlign=bottom;startArrow=oval;endArrow=block;startSize=8;edgeStyle=elbowEdgeStyle;elbow=vertical;curved=0;rounded=0;" edge="1" target="se3cPvvkGwRjd8mJUUMq-68" parent="se3cPvvkGwRjd8mJUUMq-64">
          <mxGeometry relative="1" as="geometry">
            <mxPoint x="-100" y="80" as="sourcePoint" />
          </mxGeometry>
        </mxCell>
        <mxCell id="se3cPvvkGwRjd8mJUUMq-75" value="" style="html=1;points=[];perimeter=orthogonalPerimeter;outlineConnect=0;targetShapes=umlLifeline;portConstraint=eastwest;newEdgeStyle={&quot;edgeStyle&quot;:&quot;elbowEdgeStyle&quot;,&quot;elbow&quot;:&quot;vertical&quot;,&quot;curved&quot;:0,&quot;rounded&quot;:0};" vertex="1" parent="se3cPvvkGwRjd8mJUUMq-64">
          <mxGeometry x="50" y="180" width="10" height="40" as="geometry" />
        </mxCell>
        <mxCell id="se3cPvvkGwRjd8mJUUMq-76" value="选择缓存文件，配置模板" style="html=1;align=left;spacingLeft=2;endArrow=block;rounded=0;edgeStyle=orthogonalEdgeStyle;curved=0;rounded=0;" edge="1" target="se3cPvvkGwRjd8mJUUMq-75" parent="se3cPvvkGwRjd8mJUUMq-64">
          <mxGeometry relative="1" as="geometry">
            <mxPoint x="55" y="160" as="sourcePoint" />
            <Array as="points">
              <mxPoint x="85" y="190" />
            </Array>
          </mxGeometry>
        </mxCell>
        <mxCell id="se3cPvvkGwRjd8mJUUMq-80" value="" style="html=1;points=[];perimeter=orthogonalPerimeter;outlineConnect=0;targetShapes=umlLifeline;portConstraint=eastwest;newEdgeStyle={&quot;edgeStyle&quot;:&quot;elbowEdgeStyle&quot;,&quot;elbow&quot;:&quot;vertical&quot;,&quot;curved&quot;:0,&quot;rounded&quot;:0};" vertex="1" parent="se3cPvvkGwRjd8mJUUMq-64">
          <mxGeometry x="45" y="340" width="10" height="210" as="geometry" />
        </mxCell>
        <mxCell id="se3cPvvkGwRjd8mJUUMq-81" value="运营模板上线" style="html=1;verticalAlign=bottom;startArrow=oval;endArrow=block;startSize=8;edgeStyle=elbowEdgeStyle;elbow=vertical;curved=0;rounded=0;" edge="1" target="se3cPvvkGwRjd8mJUUMq-80" parent="se3cPvvkGwRjd8mJUUMq-64">
          <mxGeometry relative="1" as="geometry">
            <mxPoint x="-100" y="340" as="sourcePoint" />
          </mxGeometry>
        </mxCell>
        <mxCell id="se3cPvvkGwRjd8mJUUMq-84" value="" style="html=1;points=[];perimeter=orthogonalPerimeter;outlineConnect=0;targetShapes=umlLifeline;portConstraint=eastwest;newEdgeStyle={&quot;edgeStyle&quot;:&quot;elbowEdgeStyle&quot;,&quot;elbow&quot;:&quot;vertical&quot;,&quot;curved&quot;:0,&quot;rounded&quot;:0};" vertex="1" parent="se3cPvvkGwRjd8mJUUMq-64">
          <mxGeometry x="50" y="450" width="10" height="40" as="geometry" />
        </mxCell>
        <mxCell id="se3cPvvkGwRjd8mJUUMq-85" value="判断缓存是否全部合成完毕&lt;br&gt;若未合成完毕，则禁止上线" style="html=1;align=left;spacingLeft=2;endArrow=block;rounded=0;edgeStyle=orthogonalEdgeStyle;curved=0;rounded=0;" edge="1" target="se3cPvvkGwRjd8mJUUMq-84" parent="se3cPvvkGwRjd8mJUUMq-64">
          <mxGeometry relative="1" as="geometry">
            <mxPoint x="55" y="430" as="sourcePoint" />
            <Array as="points">
              <mxPoint x="85" y="460" />
            </Array>
          </mxGeometry>
        </mxCell>
        <mxCell id="se3cPvvkGwRjd8mJUUMq-71" value="查询缓存列表" style="html=1;verticalAlign=bottom;startArrow=oval;endArrow=block;startSize=8;edgeStyle=elbowEdgeStyle;elbow=vertical;curved=0;rounded=0;" edge="1" target="se3cPvvkGwRjd8mJUUMq-70" parent="1" source="se3cPvvkGwRjd8mJUUMq-68">
          <mxGeometry relative="1" as="geometry">
            <mxPoint x="465" y="1330" as="sourcePoint" />
          </mxGeometry>
        </mxCell>
        <mxCell id="se3cPvvkGwRjd8mJUUMq-72" value="VideoTemplateDao&lt;br&gt;模板表" style="shape=umlLifeline;perimeter=lifelinePerimeter;whiteSpace=wrap;html=1;container=1;dropTarget=0;collapsible=0;recursiveResize=0;outlineConnect=0;portConstraint=eastwest;newEdgeStyle={&quot;edgeStyle&quot;:&quot;elbowEdgeStyle&quot;,&quot;elbow&quot;:&quot;vertical&quot;,&quot;curved&quot;:0,&quot;rounded&quot;:0};" vertex="1" parent="1">
          <mxGeometry x="630" y="1220" width="100" height="470" as="geometry" />
        </mxCell>
        <mxCell id="se3cPvvkGwRjd8mJUUMq-73" value="" style="html=1;points=[];perimeter=orthogonalPerimeter;outlineConnect=0;targetShapes=umlLifeline;portConstraint=eastwest;newEdgeStyle={&quot;edgeStyle&quot;:&quot;elbowEdgeStyle&quot;,&quot;elbow&quot;:&quot;vertical&quot;,&quot;curved&quot;:0,&quot;rounded&quot;:0};" vertex="1" parent="se3cPvvkGwRjd8mJUUMq-72">
          <mxGeometry x="45" y="220" width="10" height="80" as="geometry" />
        </mxCell>
        <mxCell id="se3cPvvkGwRjd8mJUUMq-74" value="绑定模板和缓存文件" style="html=1;verticalAlign=bottom;startArrow=oval;endArrow=block;startSize=8;edgeStyle=elbowEdgeStyle;elbow=vertical;curved=0;rounded=0;" edge="1" target="se3cPvvkGwRjd8mJUUMq-73" parent="1" source="se3cPvvkGwRjd8mJUUMq-68">
          <mxGeometry relative="1" as="geometry">
            <mxPoint x="615" y="1410" as="sourcePoint" />
            <Array as="points">
              <mxPoint x="630" y="1470" />
            </Array>
          </mxGeometry>
        </mxCell>
        <mxCell id="se3cPvvkGwRjd8mJUUMq-83" value="查询模板对应的缓存文件" style="html=1;verticalAlign=bottom;startArrow=oval;endArrow=block;startSize=8;edgeStyle=elbowEdgeStyle;elbow=vertical;curved=0;rounded=0;" edge="1" target="se3cPvvkGwRjd8mJUUMq-82" parent="1" source="se3cPvvkGwRjd8mJUUMq-80">
          <mxGeometry relative="1" as="geometry">
            <mxPoint x="465" y="1570" as="sourcePoint" />
          </mxGeometry>
        </mxCell>
      </root>
    </mxGraphModel>
  </diagram>
</mxfile>
